<svg xmlns="http://www.w3.org/2000/svg" viewBox="0 0 400 400">
   <path d="M197.101 10.205c-.45.147-1.17.454-1.6.683-2.554 1.361-182.382 121.503-183.111 122.336-4.336 4.951-2.737 13.021 3.155 15.921l1.575.775h365.76l1.575-.775c5.66-2.786 7.384-9.878 3.702-15.23-.95-1.381-178.878-120.567-183.71-123.06-1.524-.786-5.775-1.162-7.346-.65M96.624 165.236c-5.582 1.202-10.293 5.99-11.471 11.66-.5 2.404-.5 163.804 0 166.208 3.08 14.817 23.804 16.249 29.164 2.016l.723-1.92.16-26.511.16-26.511 26.378 29.711c28.741 32.372 28.63 32.254 31.534 33.683 12.965 6.383 26.518-7.154 20.314-20.292-.731-1.549-6.565-8.286-30.205-34.88l-29.299-32.96 24.399-.174c18.799-.134 24.693-.269 25.679-.591 5.435-1.771 9.697-6.482 10.713-11.84.472-2.485.446-73.672-.027-75.939-1.237-5.932-6.058-10.674-11.945-11.749-2.815-.514-83.864-.431-86.277.089m120 0c-13.656 2.942-16.004 22.141-3.457 28.278 3.453 1.689 3.38 1.686 38.732 1.686H284.8v129.6h-32.901c-39.153 0-37.915-.13-42.572 4.462-8.584 8.461-4.034 23.443 7.772 25.592 2.656.484 83.155.483 85.802-.001 5.887-1.075 10.708-5.817 11.945-11.749.502-2.406.502-163.802 0-166.208-1.237-5.932-6.058-10.674-11.945-11.749-2.815-.514-83.864-.431-86.277.089M164.8 215.04v19.84h-49.6V195.2h49.6zm71.26 20.321c-14.391 3.955-14.937 24.317-.779 29.056 2.413.807 22.529 1.224 26.876.556 16.218-2.49 17.477-25.486 1.621-29.616-2.5-.651-25.347-.648-27.718.004M16.564 370.404c-8.355 3.072-8.994 14.816-1.019 18.741l1.575.775h365.76l1.575-.775c7.479-3.681 7.479-14.609 0-18.29l-1.575-.775-182.56-.058c-154.159-.049-182.746.011-183.756.382"/>
</svg>
