<svg viewBox="0 0 400 400" xmlns="http://www.w3.org/2000/svg">
   <path fill="#f00" d="M86.303 11.989 C 63.584 16.801,41.658 36.432,34.915 58.000 C 33.351 63.000,32.559 70.154,31.482 89.000 C 29.408 125.297,27.539 139.523,22.945 154.000 C 10.928 191.863,6.877 207.007,4.619 222.511 C 2.643 236.082,1.546 261.225,2.826 263.622 C 3.377 264.655,4.343 269.325,4.973 274.000 C 9.045 304.237,30.190 367.712,39.685 378.204 C 49.330 388.863,144.892 390.439,158.925 380.170 C 166.676 374.499,188.780 315.244,194.614 284.500 C 198.063 266.320,198.675 234.346,195.819 221.500 C 192.648 207.241,187.710 188.078,183.449 173.500 C 174.553 143.065,171.165 124.748,169.026 95.500 C 166.535 61.463,164.951 54.712,156.450 41.925 C 141.778 19.856,111.058 6.745,86.303 11.989 M283.000 12.507 C 259.422 18.255,237.611 39.307,232.528 61.224 C 231.699 64.797,230.575 76.446,230.030 87.110 C 227.915 128.511,226.557 137.078,217.506 166.161 C 198.238 228.069,196.665 251.987,208.641 300.938 C 215.636 329.532,233.848 375.705,239.624 379.489 C 253.750 388.745,335.086 389.999,355.336 381.272 C 359.647 379.414,364.419 371.050,371.883 352.270 C 397.425 288.001,402.135 251.386,390.632 206.500 C 388.800 199.350,386.345 189.675,385.177 185.000 C 384.009 180.325,381.444 171.100,379.476 164.500 C 372.432 140.866,370.098 126.950,366.985 90.000 C 364.873 64.947,364.174 60.490,361.254 53.500 C 348.917 23.959,313.065 5.179,283.000 12.507 M96.965 19.809 C 96.945 21.289,96.286 23.625,95.500 25.000 C 93.340 28.779,93.705 29.346,96.854 27.104 L 99.708 25.071 103.048 27.536 C 104.886 28.891,106.494 30.000,106.624 30.000 C 106.753 30.000,105.733 27.985,104.357 25.523 C 101.764 20.883,101.536 16.974,103.815 16.223 C 104.820 15.892,104.968 16.654,104.442 19.460 C 103.793 22.919,104.050 23.416,108.931 28.120 L 114.109 33.111 110.304 32.323 C 56.120 21.095,26.284 92.955,72.188 124.128 C 75.469 126.356,78.007 128.323,77.827 128.499 C 77.438 128.880,34.652 123.971,34.162 123.489 C 33.030 122.378,37.351 68.762,39.198 61.000 C 40.841 54.091,46.626 43.736,52.376 37.408 L 57.568 31.695 60.349 34.272 C 63.053 36.779,69.000 39.527,69.000 38.271 C 69.000 37.927,67.544 36.430,65.764 34.944 C 62.359 32.101,62.427 27.352,65.889 26.202 C 66.738 25.920,67.004 26.184,66.575 26.879 C 65.246 29.028,67.098 31.877,70.569 33.023 C 80.357 36.253,95.000 28.067,95.000 19.364 C 95.000 17.297,95.406 16.133,96.000 16.500 C 96.550 16.840,96.984 18.329,96.965 19.809 M295.560 18.384 C 295.931 19.861,295.359 22.336,294.059 24.884 C 291.725 29.459,292.224 30.077,295.653 26.856 L 297.935 24.713 301.467 27.407 C 305.513 30.493,305.898 30.070,302.891 25.847 C 300.211 22.083,299.824 16.712,302.197 16.223 C 303.620 15.930,303.802 16.446,303.320 19.417 C 302.617 23.751,304.684 27.291,309.616 30.201 C 314.210 32.911,313.798 33.051,304.906 31.804 C 249.685 24.055,225.862 99.521,274.871 126.948 C 275.758 127.444,276.262 128.060,275.992 128.316 C 275.578 128.708,232.813 124.150,232.340 123.664 C 231.941 123.254,235.030 79.490,236.056 71.015 C 237.766 56.886,244.584 42.340,253.338 34.144 L 255.854 31.788 259.677 34.761 C 261.780 36.396,264.273 37.999,265.218 38.323 C 267.986 39.273,268.177 37.402,265.439 36.154 C 262.317 34.732,260.931 31.246,262.296 28.250 C 263.673 25.227,264.799 25.413,265.184 28.727 C 266.505 40.115,293.000 31.418,293.000 19.596 C 293.000 15.539,294.650 14.758,295.560 18.384 M90.801 20.163 C 90.966 21.542,90.495 23.175,89.753 23.790 C 88.661 24.696,88.415 24.160,88.453 20.958 C 88.504 16.679,90.310 16.067,90.801 20.163 M290.000 20.512 C 290.000 21.208,289.076 22.841,287.947 24.139 L 285.894 26.500 286.646 24.000 C 287.059 22.625,287.354 20.471,287.302 19.213 C 287.225 17.366,287.475 17.149,288.604 18.086 C 289.372 18.723,290.000 19.815,290.000 20.512 M309.335 20.325 C 308.497 25.486,315.603 30.759,322.148 29.833 C 329.886 28.738,323.862 21.471,315.854 22.240 C 313.184 22.497,311.000 22.584,311.000 22.435 C 311.000 17.028,322.783 18.686,326.685 24.642 C 331.583 32.117,319.224 34.267,311.023 27.365 C 306.598 23.642,305.801 21.729,307.604 19.155 C 309.657 16.224,309.966 16.434,309.335 20.325 M110.781 21.003 C 110.627 26.406,118.178 31.176,124.409 29.612 C 131.202 27.907,125.027 21.399,117.430 22.255 C 113.618 22.685,112.948 22.507,113.208 21.133 C 114.049 16.688,124.918 19.872,128.721 25.677 C 130.004 27.635,129.927 28.073,127.957 30.043 C 122.622 35.378,105.731 26.356,108.337 19.564 C 109.348 16.929,110.871 17.826,110.781 21.003 M86.495 19.992 C 86.832 20.538,86.664 21.775,86.121 22.742 C 85.183 24.414,85.102 24.415,84.460 22.750 C 83.555 20.399,79.317 20.509,75.250 22.989 C 69.193 26.682,73.003 30.942,80.509 28.870 C 84.879 27.663,86.446 28.500,82.574 29.972 C 74.311 33.114,66.309 28.536,71.750 23.780 C 76.424 19.694,84.956 17.502,86.495 19.992 M284.530 20.048 C 284.886 20.624,284.882 21.862,284.521 22.798 C 283.908 24.389,283.801 24.386,282.883 22.750 C 281.686 20.617,277.880 20.493,274.072 22.463 C 266.493 26.382,271.377 31.088,280.500 28.658 C 282.980 27.997,283.275 28.087,282.200 29.179 C 278.688 32.748,267.172 30.184,268.462 26.121 C 269.886 21.633,282.551 16.846,284.530 20.048 M81.057 25.893 C 79.627 28.565,74.682 28.887,75.186 26.275 C 75.585 24.199,80.128 21.728,81.331 22.931 C 81.803 23.403,81.681 24.728,81.057 25.893 M279.830 25.644 C 279.577 26.958,278.600 27.500,276.486 27.500 C 272.762 27.500,272.473 25.071,275.989 23.318 C 278.793 21.920,280.364 22.872,279.830 25.644 M121.794 24.568 C 123.026 25.431,123.774 26.556,123.458 27.068 C 122.528 28.574,119.266 28.136,118.607 26.418 C 117.180 22.698,118.243 22.081,121.794 24.568 M320.066 24.035 C 322.581 25.381,322.561 28.000,320.035 28.000 C 318.359 28.000,316.000 25.408,316.000 23.566 C 316.000 22.677,317.948 22.902,320.066 24.035 M135.474 27.950 C 137.480 31.829,137.506 31.722,133.750 35.257 L 130.500 38.316 133.500 37.587 C 135.150 37.186,137.779 35.652,139.342 34.179 L 142.184 31.500 145.650 35.483 C 154.808 46.010,159.883 56.666,161.849 69.500 C 163.812 82.308,166.300 120.100,165.249 121.151 C 164.061 122.339,123.000 128.908,123.000 127.911 C 123.000 127.524,125.138 125.835,127.750 124.157 C 160.002 103.439,156.688 50.425,122.254 36.248 C 116.367 33.824,116.928 33.000,124.465 33.000 C 131.337 33.000,133.000 31.844,133.000 27.066 C 133.000 24.232,133.677 24.474,135.474 27.950 M335.000 30.583 C 335.000 31.954,333.712 33.870,331.750 35.416 C 329.293 37.353,328.939 37.981,330.300 37.989 C 332.855 38.005,337.723 35.316,338.882 33.250 C 340.184 30.927,344.356 34.793,350.504 44.020 C 358.648 56.243,360.137 62.122,362.486 91.329 C 364.813 120.268,364.729 121.783,360.750 122.475 C 346.775 124.907,321.000 128.537,321.002 128.073 C 321.003 127.758,322.954 126.268,325.339 124.761 C 357.434 104.485,356.332 54.833,323.408 37.810 C 315.379 33.658,315.413 33.161,323.750 32.796 L 330.500 32.500 330.816 28.655 C 331.181 24.210,335.000 25.970,335.000 30.583 M101.465 43.264 C 102.809 47.375,107.660 50.561,116.441 53.098 C 128.715 56.645,131.719 58.000,136.361 62.087 C 154.822 78.337,146.030 110.486,119.546 123.575 C 98.409 134.021,68.403 124.355,58.781 104.000 C 46.489 77.997,53.298 62.367,80.535 54.065 C 92.436 50.438,96.366 47.488,98.469 40.607 C 99.179 38.283,100.106 39.105,101.465 43.264 M299.628 43.028 C 301.623 48.014,306.453 50.988,317.323 53.922 C 339.333 59.863,348.776 74.147,343.523 93.552 C 331.650 137.415,268.152 139.481,254.204 96.458 C 246.579 72.939,253.934 61.435,281.960 53.047 C 290.097 50.612,297.000 45.136,297.000 41.118 C 297.000 37.939,297.834 38.546,299.628 43.028 M75.000 62.661 C 72.287 63.790,68.000 67.117,68.000 68.094 C 68.000 68.620,69.342 68.357,70.983 67.509 C 75.158 65.350,81.897 64.602,86.277 65.811 C 90.246 66.907,91.903 65.994,89.526 64.022 C 87.908 62.679,77.337 61.689,75.000 62.661 M111.179 63.480 C 106.477 65.580,108.011 66.856,113.810 65.668 C 118.440 64.720,121.235 65.182,128.500 68.099 C 131.275 69.213,129.846 66.267,126.910 64.821 C 121.804 62.306,115.090 61.734,111.179 63.480 M272.500 63.325 C 268.691 65.062,265.378 68.700,268.500 67.717 C 277.715 64.815,279.110 64.628,284.023 65.634 C 289.394 66.734,291.465 65.854,287.942 63.969 C 284.554 62.156,275.857 61.793,272.500 63.325 M311.500 62.713 C 309.242 63.280,307.000 64.893,307.000 65.949 C 307.000 66.337,309.294 66.184,312.098 65.609 C 316.501 64.707,318.009 64.861,323.167 66.740 C 326.981 68.129,328.994 68.482,328.739 67.716 C 327.692 64.575,316.742 61.397,311.500 62.713 M93.150 68.950 C 93.370 69.610,93.876 70.116,94.275 70.075 C 95.471 69.951,95.239 68.580,93.950 68.150 C 93.290 67.930,92.930 68.290,93.150 68.950 M103.543 68.931 C 102.860 70.036,104.437 71.230,105.361 70.306 C 106.311 69.355,106.134 68.000,105.059 68.000 C 104.541 68.000,103.859 68.419,103.543 68.931 M291.229 69.188 C 291.847 71.042,294.000 71.349,294.000 69.583 C 294.000 68.713,293.288 68.000,292.417 68.000 C 291.546 68.000,291.011 68.534,291.229 69.188 M302.469 69.050 C 301.519 70.588,302.820 71.580,304.104 70.296 C 304.822 69.578,304.839 69.019,304.156 68.597 C 303.596 68.251,302.837 68.455,302.469 69.050 M63.000 71.000 C 63.000 71.550,63.927 72.000,65.059 72.000 C 66.191 72.000,66.840 71.550,66.500 71.000 C 66.160 70.450,65.234 70.000,64.441 70.000 C 63.648 70.000,63.000 70.450,63.000 71.000 M72.500 72.000 C 70.850 73.093,68.487 73.990,67.250 73.993 C 64.052 74.003,64.465 75.872,67.993 77.355 C 70.312 78.330,70.717 78.883,69.793 79.807 C 68.869 80.731,68.927 81.001,70.050 81.006 C 70.847 81.010,72.647 81.611,74.049 82.343 C 80.759 85.844,87.283 85.015,89.023 80.439 C 89.533 79.098,90.670 78.000,91.549 78.000 C 94.427 78.000,92.623 74.633,88.492 72.294 C 83.388 69.403,76.609 69.279,72.500 72.000 M111.367 71.918 C 104.175 76.303,103.928 81.157,111.085 77.456 C 114.031 75.933,114.380 75.928,115.202 77.396 C 116.359 79.465,118.855 79.441,121.177 77.339 C 122.187 76.426,123.346 76.013,123.755 76.421 C 125.289 77.956,120.466 80.000,115.309 80.000 C 109.710 80.000,109.166 80.477,111.351 83.465 C 113.599 86.540,129.596 83.453,128.547 80.147 C 128.134 78.848,128.810 78.175,131.248 77.457 C 135.965 76.069,135.012 74.976,126.800 72.356 C 117.914 69.521,115.414 69.450,111.367 71.918 M261.000 71.000 C 261.000 71.550,261.927 72.000,263.059 72.000 C 264.191 72.000,264.840 71.550,264.500 71.000 C 264.160 70.450,263.234 70.000,262.441 70.000 C 261.648 70.000,261.000 70.450,261.000 71.000 M271.000 72.000 C 269.075 73.054,266.488 73.935,265.250 73.958 C 262.003 74.019,262.485 75.924,266.061 77.171 C 267.804 77.779,268.920 78.767,268.651 79.466 C 268.108 80.882,273.658 83.477,279.326 84.457 C 282.804 85.059,283.457 84.795,286.509 81.560 C 288.355 79.602,290.346 78.000,290.933 78.000 C 292.642 78.000,292.174 76.512,289.750 74.241 C 284.888 69.686,276.958 68.738,271.000 72.000 M312.000 70.702 C 310.118 71.384,304.000 77.115,304.000 78.196 C 304.000 79.555,307.430 79.088,309.839 77.400 C 311.950 75.921,312.273 75.937,314.120 77.608 C 315.743 79.077,316.434 79.188,317.809 78.202 C 320.499 76.270,322.038 75.704,322.726 76.393 C 324.175 77.842,320.661 79.397,315.015 79.805 C 308.848 80.251,307.494 81.505,310.491 83.992 C 313.354 86.369,328.551 82.600,327.470 79.782 C 327.155 78.962,328.185 77.991,330.164 77.244 C 334.145 75.742,333.751 75.349,325.303 72.391 C 318.657 70.064,315.030 69.603,312.000 70.702 M78.638 76.500 C 79.296 78.213,83.091 78.509,84.633 76.967 C 85.739 75.861,89.000 76.666,89.000 78.046 C 89.000 79.438,80.681 80.216,77.750 79.098 C 75.034 78.062,74.368 76.965,75.667 75.667 C 76.773 74.560,78.029 74.912,78.638 76.500 M277.000 76.500 C 277.000 78.279,281.061 78.539,282.733 76.867 C 283.982 75.618,287.000 76.365,287.000 77.923 C 287.000 79.573,280.354 80.272,276.565 79.022 C 273.075 77.870,272.328 77.005,273.667 75.667 C 274.885 74.449,277.000 74.978,277.000 76.500 M93.080 106.654 L 88.659 109.317 91.567 111.635 C 98.179 116.907,101.830 116.900,108.472 111.604 L 111.419 109.254 107.459 107.249 C 100.639 103.795,98.007 103.686,93.080 106.654 M292.485 106.102 C 286.547 109.235,286.432 109.617,290.635 112.269 C 297.010 116.292,298.466 116.416,303.994 113.407 C 310.246 110.004,310.228 109.480,303.750 106.464 C 297.367 103.492,297.429 103.494,292.485 106.102 M43.432 132.773 C 49.645 136.208,49.951 137.249,45.547 139.971 C 40.695 142.970,41.034 143.647,48.185 145.236 C 56.119 146.998,56.247 147.780,49.545 153.506 C 43.486 158.682,42.955 159.699,46.062 160.180 C 47.337 160.378,44.190 162.087,37.812 164.662 C 28.852 168.277,23.491 169.560,28.008 167.007 C 28.829 166.543,31.498 164.713,33.939 162.939 L 38.378 159.713 35.468 157.393 L 32.557 155.072 35.279 152.231 C 38.528 148.839,38.631 147.881,36.000 145.500 C 33.220 142.984,33.499 141.311,37.000 139.500 C 40.325 137.780,40.654 136.449,38.468 133.559 C 35.242 129.293,36.715 129.060,43.432 132.773 M161.307 133.079 C 159.351 136.412,159.714 137.046,165.631 140.632 C 167.396 141.702,167.347 141.886,164.750 143.955 C 161.195 146.786,161.284 148.220,165.219 151.531 L 168.438 154.239 165.517 156.568 C 162.119 159.277,163.021 161.081,169.524 164.583 C 174.598 167.316,173.772 168.280,168.250 166.069 C 157.309 161.688,155.831 160.882,156.336 159.568 C 156.640 158.775,154.234 156.143,150.396 153.067 C 144.474 148.321,143.154 146.000,146.378 146.000 C 148.628 146.000,158.000 142.943,157.992 142.211 C 157.988 141.820,156.175 140.466,153.962 139.203 C 149.291 136.535,149.488 135.827,155.819 132.531 C 162.333 129.138,163.547 129.260,161.307 133.079 M242.029 133.014 C 249.131 136.600,249.035 136.238,243.879 139.973 C 239.285 143.300,239.587 143.703,248.000 145.487 C 254.559 146.878,254.559 147.281,248.002 153.580 C 242.421 158.940,242.053 159.540,244.050 160.012 C 245.703 160.402,243.686 161.590,235.965 164.771 C 223.949 169.722,222.816 169.637,230.425 164.354 C 235.330 160.949,237.542 158.000,235.191 158.000 C 231.231 158.000,230.569 155.069,233.777 151.745 L 237.053 148.350 234.527 145.623 C 231.261 142.100,231.343 141.074,235.000 139.694 C 238.293 138.451,238.789 136.425,236.532 133.441 C 233.328 129.206,234.330 129.128,242.029 133.014 M360.968 130.750 C 360.951 131.162,360.276 132.374,359.468 133.441 C 357.337 136.258,357.563 136.736,362.118 139.060 L 366.236 141.161 362.868 144.645 L 359.500 148.129 362.759 150.814 C 366.664 154.033,366.821 155.305,363.500 156.818 C 359.875 158.470,360.352 159.549,366.515 163.641 C 369.548 165.655,371.865 167.469,371.662 167.671 C 370.646 168.687,353.921 160.648,354.408 159.378 C 354.733 158.534,352.425 155.995,348.403 152.772 C 341.132 146.945,340.986 147.356,351.330 144.505 C 357.687 142.752,357.840 141.419,351.967 138.986 C 347.734 137.233,348.266 135.783,354.250 132.768 C 359.903 129.919,361.018 129.584,360.968 130.750 M89.711 133.690 C 90.110 134.730,89.809 135.549,88.930 135.818 C 88.143 136.059,84.256 139.512,80.290 143.490 C 73.612 150.191,72.629 150.813,66.943 151.931 C 59.769 153.343,58.474 152.832,63.157 150.439 C 64.996 149.500,67.847 147.783,69.493 146.624 L 72.487 144.517 69.493 143.877 C 67.847 143.525,63.688 143.183,60.250 143.118 C 51.738 142.957,52.398 141.897,62.665 139.243 C 72.958 136.582,72.939 136.596,69.892 134.058 L 67.500 132.067 78.281 132.033 C 87.500 132.005,89.157 132.245,89.711 133.690 M104.537 133.885 C 104.207 134.922,104.377 137.722,104.913 140.108 C 106.125 145.504,105.895 145.734,102.465 142.555 C 100.949 141.150,99.061 140.000,98.271 140.000 C 97.480 140.000,97.034 139.438,97.279 138.750 C 97.525 138.063,97.101 136.262,96.337 134.750 L 94.949 132.000 100.042 132.000 C 104.576 132.000,105.069 132.207,104.537 133.885 M131.036 133.456 C 129.074 135.820,130.614 136.819,138.992 138.620 C 147.398 140.426,148.647 141.994,141.691 142.009 C 134.983 142.023,127.006 143.201,127.559 144.096 C 127.839 144.548,130.810 146.381,134.162 148.167 C 140.987 151.805,140.545 152.708,132.751 151.048 C 127.449 149.918,110.222 135.068,111.610 132.822 C 111.889 132.370,116.647 132.000,122.181 132.000 C 130.879 132.000,132.081 132.198,131.036 133.456 M287.686 133.624 C 288.080 134.651,287.610 135.614,286.404 136.245 C 285.357 136.793,281.710 140.152,278.301 143.708 C 272.626 149.626,271.505 150.327,265.051 151.987 C 256.433 154.204,256.154 153.476,263.974 149.177 C 273.031 144.198,271.822 143.037,257.550 143.011 C 249.941 142.997,251.175 141.741,261.337 139.154 C 270.297 136.874,271.173 136.331,268.748 134.558 C 265.699 132.329,266.763 132.000,277.031 132.000 C 285.366 132.000,287.168 132.275,287.686 133.624 M303.288 138.240 C 303.965 145.706,304.064 145.542,300.745 142.465 C 299.283 141.109,297.505 140.000,296.794 140.000 C 296.082 140.000,295.461 138.988,295.414 137.750 C 295.366 136.512,294.980 134.713,294.557 133.750 C 293.887 132.229,294.372 132.000,298.254 132.000 L 302.722 132.000 303.288 138.240 M329.523 133.975 C 327.392 136.330,328.288 136.816,338.750 138.980 C 346.563 140.597,346.786 141.977,339.250 142.074 C 336.087 142.115,331.493 142.452,329.041 142.824 L 324.581 143.500 327.041 145.105 C 328.393 145.988,331.525 147.747,334.000 149.013 C 339.369 151.760,337.911 152.658,330.838 150.961 C 325.586 149.701,309.206 135.093,310.571 132.886 C 310.872 132.399,315.661 132.000,321.214 132.000 C 331.203 132.000,331.291 132.021,329.523 133.975 M92.000 139.484 C 92.000 139.750,89.525 143.417,86.500 147.633 C 79.684 157.133,79.641 157.968,86.195 153.555 C 92.755 149.137,92.725 149.073,89.062 159.648 C 85.659 169.470,85.394 169.521,94.300 158.642 C 98.758 153.195,100.000 152.862,100.000 157.111 L 100.000 160.222 101.967 157.861 C 105.397 153.743,104.156 157.448,99.878 164.095 C 92.623 175.366,78.261 188.081,74.440 186.615 C 70.964 185.281,74.341 162.115,79.591 151.276 C 82.436 145.403,92.000 136.315,92.000 139.484 M114.802 143.401 C 122.466 151.715,126.169 162.276,126.371 176.393 C 126.536 187.936,125.736 188.186,115.452 179.805 C 104.557 170.926,103.347 169.123,104.871 164.035 C 106.368 159.040,107.201 158.994,110.044 163.750 C 112.853 168.449,113.711 166.535,111.589 160.306 C 108.639 151.649,109.374 150.531,115.346 154.589 C 120.514 158.101,120.607 157.422,115.911 150.455 C 107.859 138.509,107.358 135.325,114.802 143.401 M286.390 145.473 C 284.251 148.513,281.623 152.432,280.552 154.181 C 278.427 157.653,278.643 157.594,285.750 152.782 C 290.836 149.338,291.019 150.055,287.461 159.508 C 284.134 168.347,284.765 168.529,291.041 160.542 C 296.352 153.784,298.243 152.902,298.830 156.910 C 299.144 159.053,299.228 159.073,300.548 157.331 C 301.690 155.825,301.942 155.776,301.968 157.054 C 302.091 163.043,279.530 187.000,273.769 187.000 C 271.793 187.000,271.737 186.602,272.265 176.250 C 273.113 159.654,278.560 146.007,286.293 141.111 C 290.793 138.263,290.813 139.190,286.390 145.473 M313.547 143.250 C 321.499 152.378,328.916 179.186,325.088 184.963 C 322.591 188.732,303.000 172.443,303.000 166.597 C 303.000 160.204,305.335 159.037,308.514 163.841 C 312.192 169.399,312.570 168.585,310.070 160.491 C 307.046 150.701,307.383 150.149,313.746 154.474 C 318.860 157.948,318.780 157.257,313.054 148.485 C 310.274 144.227,308.000 140.351,308.000 139.872 C 308.000 137.971,310.019 139.201,313.547 143.250 M63.924 161.610 C 56.433 169.676,14.409 208.000,13.055 208.000 C 12.121 208.000,19.193 179.270,20.864 176.271 C 21.679 174.809,61.713 159.356,65.424 159.071 C 65.933 159.032,65.258 160.175,63.924 161.610 M154.031 164.844 C 180.340 173.645,178.618 172.147,183.905 190.838 C 188.501 207.083,188.842 207.118,168.000 189.212 C 147.002 171.172,134.014 159.104,135.531 159.042 C 136.098 159.019,144.423 161.630,154.031 164.844 M264.000 159.680 C 264.000 161.015,213.267 208.000,211.826 208.000 C 210.545 208.000,215.511 185.901,218.772 177.088 C 219.782 174.356,264.000 157.337,264.000 159.680 M355.110 165.889 C 377.750 173.412,377.027 172.761,382.100 190.183 C 387.016 207.062,387.222 206.851,375.447 196.983 C 349.295 175.068,330.633 157.548,335.250 159.246 C 335.938 159.499,344.874 162.488,355.110 165.889 M141.530 171.436 C 151.853 179.941,153.562 182.479,161.604 201.250 C 165.361 210.019,165.256 210.503,160.719 205.325 C 153.834 197.465,143.175 192.793,147.029 199.324 C 148.107 201.152,149.278 204.752,149.631 207.324 L 150.272 212.000 147.209 212.000 C 145.132 212.000,143.512 212.805,142.179 214.500 C 139.583 217.800,139.368 217.704,138.601 212.908 C 136.580 200.270,125.446 191.068,112.119 191.022 L 105.738 191.000 106.306 194.500 C 106.869 197.967,105.482 199.419,104.372 196.526 C 103.472 194.181,94.036 190.181,87.629 189.429 L 81.759 188.739 85.129 186.206 C 86.983 184.812,91.095 181.006,94.267 177.748 L 100.033 171.824 106.911 177.921 C 115.440 185.483,124.458 191.000,128.287 191.000 L 131.192 191.000 130.846 176.999 C 130.656 169.299,130.814 163.111,131.199 163.249 C 131.583 163.387,136.232 167.071,141.530 171.436 M340.759 172.000 C 349.768 179.451,349.866 179.581,355.779 192.000 C 364.010 209.284,364.335 210.635,358.881 204.871 C 351.928 197.524,340.390 192.551,345.111 198.936 C 348.478 203.490,349.012 212.000,345.932 212.000 C 344.655 212.000,342.371 213.186,340.858 214.636 L 338.106 217.272 337.484 214.386 C 334.323 199.732,323.513 190.512,310.298 191.199 L 304.500 191.500 304.829 194.860 L 305.158 198.221 301.033 194.906 C 297.912 192.398,295.018 191.215,289.144 190.046 L 281.380 188.500 290.212 180.119 L 299.044 171.737 304.862 177.287 C 312.421 184.497,322.519 191.000,326.155 191.000 L 329.000 191.000 329.000 176.950 C 329.000 165.449,329.244 163.046,330.346 163.700 C 331.086 164.140,335.772 167.875,340.759 172.000 M69.508 177.630 L 69.500 191.260 77.494 198.586 C 85.449 205.876,86.066 207.350,81.500 208.162 C 79.900 208.446,79.400 209.517,79.000 213.509 C 78.723 216.269,77.188 220.958,75.565 224.000 L 72.630 229.500 70.729 223.000 C 66.115 207.232,61.650 198.000,58.639 198.000 C 55.795 198.000,49.271 212.235,45.348 227.000 L 44.418 230.500 42.488 227.240 C 41.426 225.448,40.095 224.129,39.529 224.310 C 38.222 224.729,35.158 236.323,35.068 241.191 C 34.975 246.216,33.900 246.502,30.607 242.374 C 25.779 236.323,34.371 204.992,46.055 186.043 C 48.370 182.289,67.305 164.129,69.008 164.030 C 69.287 164.013,69.512 170.133,69.508 177.630 M268.060 177.874 L 267.903 190.864 271.202 194.205 C 273.016 196.043,276.637 199.277,279.250 201.394 C 284.889 205.961,284.947 206.222,280.750 208.070 C 277.832 209.354,277.469 209.979,277.198 214.186 C 276.899 218.823,271.765 230.079,270.737 228.352 C 270.457 227.884,269.250 223.906,268.053 219.513 C 265.448 209.957,260.450 199.110,258.263 198.271 C 255.148 197.075,248.865 208.278,245.514 221.000 C 244.573 224.575,243.603 228.150,243.358 228.944 C 243.056 229.926,242.293 229.367,240.972 227.194 C 237.533 221.540,236.049 223.822,233.859 238.128 L 232.615 246.253 229.808 243.111 C 225.252 238.012,227.419 225.064,236.567 202.728 C 243.593 185.575,246.391 181.831,262.405 168.162 C 268.540 162.925,268.247 162.422,268.060 177.874 M177.638 202.261 C 183.213 207.091,188.208 212.271,188.738 213.771 C 189.267 215.272,190.283 218.075,190.996 220.000 C 191.708 221.925,192.218 226.425,192.128 230.000 C 192.038 233.575,192.570 238.750,193.311 241.500 C 194.100 244.433,194.355 247.740,193.927 249.500 C 193.525 251.150,192.907 254.188,192.553 256.250 L 191.909 260.000 184.955 260.000 L 178.000 260.000 178.000 253.461 C 178.000 236.499,174.064 216.569,167.499 200.288 C 165.574 195.516,164.000 191.419,164.000 191.183 C 164.000 190.568,166.231 192.381,177.638 202.261 M381.065 206.738 C 387.819 212.971,390.859 220.896,390.854 232.259 C 390.852 235.976,391.329 240.476,391.914 242.259 C 392.694 244.636,392.633 247.365,391.683 252.500 L 390.388 259.500 383.336 259.791 L 376.283 260.082 375.735 246.291 C 375.098 230.265,373.471 221.883,367.918 206.000 C 365.706 199.675,363.614 193.600,363.269 192.500 C 362.635 190.482,368.751 195.375,381.065 206.738 M35.000 195.415 C 35.000 195.643,33.657 199.355,32.016 203.665 C 26.278 218.730,23.612 233.628,22.739 255.500 L 22.500 261.500 15.000 261.500 L 7.500 261.500 6.937 255.000 C 6.627 251.425,6.210 248.050,6.010 247.500 C 5.810 246.950,6.226 244.475,6.935 242.000 C 7.694 239.348,8.028 234.748,7.748 230.798 C 7.325 224.815,7.574 223.572,10.072 219.198 C 13.704 212.838,35.000 192.520,35.000 195.415 M232.416 198.750 C 226.142 213.352,223.226 226.261,221.968 244.997 C 220.737 263.331,221.434 262.000,213.057 262.000 L 206.233 262.000 205.584 255.250 C 204.644 245.466,204.651 245.108,205.912 238.192 C 206.688 233.936,206.748 230.748,206.097 228.388 C 204.522 222.684,209.970 214.624,223.599 202.498 C 233.103 194.042,234.737 193.347,232.416 198.750 M102.624 218.060 C 106.651 220.009,107.127 220.036,111.475 218.560 C 121.099 215.293,126.829 217.482,132.953 226.765 C 135.048 229.942,137.131 232.000,138.252 232.000 C 144.035 232.000,149.380 238.362,148.843 244.605 C 148.589 247.545,149.157 248.600,152.773 251.905 C 158.547 257.183,158.583 260.812,152.917 266.585 L 148.834 270.745 151.932 272.951 C 159.242 278.157,159.437 283.869,152.497 289.556 C 148.453 292.870,148.000 293.668,148.000 297.486 C 148.000 302.900,145.381 306.307,139.489 308.557 C 137.020 309.500,135.000 310.884,135.000 311.633 C 135.000 319.556,118.235 326.015,109.967 321.277 C 107.648 319.948,107.023 320.044,102.568 322.413 C 90.852 328.642,77.895 323.095,76.295 311.163 L 75.737 307.000 71.118 306.998 C 61.674 306.995,55.355 301.247,55.708 292.980 C 55.881 288.953,55.585 288.003,54.002 287.501 C 50.941 286.529,47.000 281.139,47.000 277.923 L 47.000 275.000 38.023 275.000 C 29.654 275.000,28.940 275.162,27.475 277.397 C 25.008 281.163,25.022 285.590,27.500 285.123 C 32.180 284.240,32.494 284.433,32.818 288.382 C 33.324 294.556,31.986 294.790,23.608 289.996 C 12.086 283.404,9.721 280.500,9.599 272.797 L 9.500 266.500 17.893 266.000 C 25.772 265.531,26.377 265.638,27.758 267.750 C 29.109 269.815,29.990 270.000,38.492 270.000 L 47.754 270.000 47.280 265.750 C 46.746 260.976,49.328 256.586,53.631 254.950 C 55.676 254.173,56.000 253.382,56.000 249.173 C 56.000 240.441,62.628 234.005,71.622 234.002 C 75.644 234.000,75.760 233.905,76.372 230.077 C 78.111 219.197,91.918 212.877,102.624 218.060 M301.015 218.102 C 305.759 220.142,306.032 220.153,310.442 218.469 C 319.138 215.148,325.405 217.673,331.714 227.041 C 334.270 230.837,335.657 232.000,337.627 232.000 C 342.192 232.000,347.000 237.914,347.000 243.529 C 347.000 247.847,347.392 248.623,351.500 252.449 C 357.289 257.840,357.405 260.571,352.088 266.272 L 348.175 270.466 352.088 274.711 C 357.476 280.556,357.354 283.497,351.500 288.893 C 348.040 292.083,347.000 293.752,347.000 296.119 C 347.000 302.558,343.093 307.165,335.727 309.414 C 334.752 309.711,333.667 310.752,333.315 311.727 C 329.954 321.034,316.267 326.498,308.713 321.548 C 305.966 319.748,305.858 319.759,301.078 322.361 C 289.416 328.708,276.562 323.203,274.496 310.977 C 273.830 307.037,273.783 307.000,269.372 307.000 C 260.016 307.000,254.000 301.355,254.000 292.575 C 254.000 288.534,253.671 287.881,250.921 286.459 C 247.717 284.802,244.459 278.851,245.406 276.383 C 245.835 275.265,244.112 275.000,236.418 275.000 L 226.898 275.000 225.449 278.468 C 222.983 284.371,223.429 286.024,227.199 284.943 C 230.838 283.899,231.960 284.880,231.985 289.128 C 232.021 295.339,225.639 293.659,213.486 284.256 C 207.878 279.916,204.592 269.143,208.183 266.865 C 211.132 264.996,224.896 265.861,226.232 268.000 C 227.337 269.769,228.564 270.000,236.872 270.000 L 246.263 270.000 245.739 266.089 C 245.096 261.297,247.752 256.351,251.469 255.418 C 253.659 254.869,254.000 254.234,254.000 250.707 C 254.000 241.193,261.055 234.000,270.386 234.000 C 274.930 234.000,275.000 233.950,275.000 230.732 C 275.000 219.921,289.208 213.023,301.015 218.102 M171.111 231.234 C 172.406 238.478,171.876 240.540,169.521 237.427 C 168.571 236.171,168.058 233.062,168.047 228.500 C 168.027 220.094,169.328 221.255,171.111 231.234 M369.491 230.955 C 371.201 239.085,370.903 240.347,367.965 237.410 C 366.250 235.694,366.073 234.599,366.638 229.193 C 367.428 221.629,367.544 221.700,369.491 230.955 M95.444 232.010 C 80.371 245.559,57.000 267.500,57.000 268.102 C 57.000 268.469,59.475 269.079,62.500 269.457 C 70.643 270.474,70.537 273.766,62.347 274.200 L 56.694 274.500 71.597 287.554 C 101.984 314.171,104.684 316.084,99.126 307.050 C 95.628 301.365,95.863 301.187,103.093 304.037 C 109.126 306.415,110.259 305.969,107.000 302.500 C 104.005 299.312,104.611 298.810,112.616 297.846 C 152.464 293.049,152.288 250.808,112.396 244.837 C 108.053 244.187,104.337 243.532,104.138 243.382 C 103.939 243.232,105.402 241.126,107.388 238.702 C 112.338 232.661,112.029 232.457,104.025 236.487 C 95.130 240.967,95.239 241.011,98.960 234.417 C 103.401 226.548,102.333 225.818,95.444 232.010 M117.766 229.933 C 115.065 232.359,114.728 233.094,115.817 234.183 C 116.906 235.272,117.641 234.935,120.067 232.234 C 125.078 226.655,123.345 224.922,117.766 229.933 M291.497 234.174 C 276.479 247.647,259.503 263.489,257.276 266.110 L 255.051 268.728 260.199 269.337 C 268.940 270.372,269.517 274.000,260.941 274.000 C 258.223 274.000,256.026 274.337,256.058 274.750 C 256.175 276.269,299.754 313.580,300.518 312.815 C 300.771 312.563,299.609 310.199,297.938 307.563 C 294.181 301.638,294.598 301.151,301.110 303.857 C 307.910 306.683,308.483 306.572,305.804 302.949 C 303.021 299.185,303.824 298.512,312.132 297.644 C 351.496 293.530,349.970 250.599,310.250 244.682 C 301.854 243.431,301.897 243.509,306.533 237.961 C 311.213 232.359,310.407 232.043,302.514 236.382 C 294.010 241.056,293.493 240.953,296.837 235.250 C 302.924 224.866,302.065 224.693,291.497 234.174 M315.962 229.918 C 313.137 232.298,312.735 233.077,313.778 234.145 C 315.445 235.855,317.858 234.384,320.342 230.144 C 322.770 226.001,320.735 225.895,315.962 229.918 M125.750 235.115 C 122.909 237.235,122.225 239.403,124.044 240.527 C 125.517 241.438,127.666 239.396,128.870 235.942 C 130.075 232.488,129.482 232.331,125.750 235.115 M324.761 234.788 C 321.525 236.752,320.444 239.030,322.216 240.155 C 324.225 241.429,324.564 241.224,326.549 237.539 C 328.812 233.337,328.342 232.615,324.761 234.788 M131.630 242.857 C 130.117 244.528,130.104 244.842,131.499 245.999 C 133.348 247.534,133.629 247.324,134.527 243.748 C 135.328 240.558,134.062 240.169,131.630 242.857 M329.669 242.814 C 328.403 244.213,328.299 244.899,329.214 245.814 C 331.018 247.618,331.709 247.274,332.850 244.000 C 334.083 240.463,332.373 239.825,329.669 242.814 M113.000 247.915 C 113.000 248.418,110.753 250.479,108.007 252.495 C 103.808 255.578,103.173 256.454,104.007 258.014 C 105.802 261.367,105.060 263.304,100.250 267.823 C 96.764 271.098,95.899 272.424,97.000 272.804 C 100.707 274.083,105.000 279.783,105.000 283.425 C 105.000 286.651,105.494 287.348,109.500 289.767 C 111.975 291.262,114.000 292.818,114.000 293.224 C 114.000 296.397,94.762 294.414,86.555 290.396 C 81.517 287.929,74.444 281.974,78.000 283.194 C 92.211 288.068,93.096 287.941,86.040 282.034 C 79.521 276.575,79.686 275.966,87.250 277.589 C 97.431 279.773,98.135 279.494,93.235 275.220 C 87.966 270.625,87.967 270.032,93.250 265.603 C 98.284 261.382,97.834 261.281,88.000 264.423 C 78.511 267.455,78.509 267.449,85.970 259.034 C 93.250 250.823,93.125 250.648,83.892 256.134 C 76.012 260.815,73.943 260.797,79.874 256.099 C 84.582 252.371,91.419 249.209,97.270 248.054 C 103.137 246.896,113.000 246.809,113.000 247.915 M137.165 248.692 C 136.393 250.133,136.339 251.091,137.004 251.503 C 138.176 252.227,139.388 249.665,138.762 247.786 C 138.486 246.957,137.922 247.277,137.165 248.692 M312.000 247.787 C 312.000 248.219,309.715 250.279,306.923 252.364 C 304.130 254.449,302.043 256.682,302.285 257.327 C 303.991 261.872,303.889 262.674,301.248 265.530 C 299.736 267.163,297.390 269.220,296.034 270.099 L 293.568 271.699 297.207 274.084 C 301.543 276.926,304.000 280.752,304.000 284.662 C 304.000 286.995,304.865 288.038,308.750 290.389 C 313.440 293.226,313.468 293.275,311.000 294.215 C 305.129 296.452,288.717 293.111,280.750 288.057 C 274.331 283.986,274.764 282.682,281.737 285.082 C 289.986 287.919,290.733 287.115,284.564 282.039 C 277.926 276.578,278.195 275.861,286.234 277.586 C 295.548 279.584,295.822 279.413,291.078 274.580 L 286.740 270.160 291.120 266.092 C 293.529 263.855,295.275 262.019,295.000 262.013 C 294.725 262.006,290.918 263.106,286.540 264.456 C 276.486 267.558,276.377 267.360,283.837 259.591 C 292.231 250.850,291.283 250.398,279.770 257.650 C 274.923 260.703,274.067 260.625,277.076 257.405 C 283.594 250.427,312.000 242.604,312.000 247.787 M335.683 247.650 C 334.686 248.648,334.847 252.000,335.893 252.000 C 337.199 252.000,338.209 248.809,337.216 247.816 C 336.749 247.349,336.059 247.274,335.683 247.650 M125.137 251.070 C 127.368 252.208,129.038 253.295,128.847 253.484 C 128.067 254.258,117.596 251.288,117.230 250.189 C 116.611 248.332,120.654 248.783,125.137 251.070 M322.980 250.609 C 325.191 251.493,327.000 252.666,327.000 253.216 C 327.000 253.765,326.212 253.909,325.250 253.537 C 324.288 253.165,322.150 252.628,320.500 252.343 C 315.778 251.530,314.828 251.087,315.496 250.007 C 316.370 248.592,318.334 248.750,322.980 250.609 M113.393 255.582 C 113.727 256.452,114.000 258.477,114.000 260.082 C 114.000 262.152,114.490 263.000,115.686 263.000 C 122.281 263.000,124.222 273.142,118.500 277.707 C 116.575 279.243,115.000 281.033,115.000 281.685 C 115.000 282.337,114.554 284.042,114.009 285.475 C 112.530 289.368,109.000 287.249,109.000 282.468 C 109.000 279.888,108.069 277.975,105.345 274.960 L 101.690 270.915 104.845 267.660 C 106.951 265.487,108.000 263.414,108.000 261.425 C 108.000 256.411,112.034 252.040,113.393 255.582 M126.882 257.099 C 139.656 263.482,140.369 276.371,128.369 283.981 C 119.607 289.538,114.757 287.995,120.345 281.430 C 128.255 272.137,128.229 266.545,120.250 261.087 C 117.226 259.018,116.104 256.230,117.667 254.667 C 118.847 253.487,120.556 253.938,126.882 257.099 M174.000 255.500 C 174.000 256.325,173.550 257.000,173.000 257.000 C 172.450 257.000,172.000 256.325,172.000 255.500 C 172.000 254.675,172.450 254.000,173.000 254.000 C 173.550 254.000,174.000 254.675,174.000 255.500 M312.015 257.809 C 312.034 261.177,312.786 262.227,316.270 263.758 C 322.063 266.304,322.142 273.268,316.438 278.493 C 314.507 280.261,313.000 282.611,313.000 283.852 C 313.000 289.093,307.648 287.233,307.380 281.899 C 307.293 280.164,305.867 277.173,304.046 274.908 L 300.865 270.949 303.372 267.970 C 304.795 266.279,306.171 263.040,306.555 260.480 C 307.518 254.059,311.982 251.875,312.015 257.809 M321.758 255.415 C 336.957 260.777,339.882 274.192,327.835 283.286 C 319.750 289.389,312.643 288.137,318.748 281.684 C 326.277 273.725,325.165 260.000,316.991 260.000 C 315.835 260.000,314.716 256.268,315.494 255.009 C 316.311 253.687,316.985 253.731,321.758 255.415 M191.763 271.070 C 191.193 279.034,188.665 282.662,180.245 287.597 C 174.899 290.730,173.633 290.069,174.594 284.647 C 175.650 278.686,175.264 275.870,172.963 272.746 C 168.915 267.251,173.078 264.074,184.384 264.030 L 192.269 264.000 191.763 271.070 M390.991 265.750 C 390.936 276.836,388.282 281.640,378.963 287.523 C 373.025 291.272,372.645 290.977,373.412 283.200 C 374.018 277.042,373.852 276.062,371.652 272.819 L 369.223 269.239 371.652 266.620 C 374.792 263.234,391.007 262.504,390.991 265.750 M141.000 283.500 C 141.000 284.325,141.730 285.000,142.622 285.000 C 143.951 285.000,144.020 284.729,143.000 283.500 C 142.315 282.675,141.585 282.000,141.378 282.000 C 141.170 282.000,141.000 282.675,141.000 283.500 M339.000 283.271 C 339.000 284.104,339.675 285.045,340.500 285.362 C 341.325 285.678,342.000 285.556,342.000 285.091 C 342.000 284.626,341.325 283.685,340.500 283.000 C 339.279 281.987,339.000 282.037,339.000 283.271 M130.000 287.480 C 130.000 288.439,122.021 292.000,119.873 292.000 C 116.806 292.000,118.297 290.802,123.821 288.828 C 128.966 286.989,130.000 286.763,130.000 287.480 M326.325 289.068 C 323.212 291.062,314.766 293.074,316.260 291.465 C 317.151 290.506,325.818 287.320,328.000 287.151 C 328.825 287.086,328.071 287.949,326.325 289.068 M136.447 289.087 C 136.007 289.798,136.460 290.863,137.538 291.652 C 141.128 294.277,142.409 292.585,139.099 289.590 C 137.674 288.300,137.010 288.174,136.447 289.087 M335.000 289.265 C 335.000 290.735,336.941 293.000,338.200 293.000 C 339.824 293.000,338.935 290.036,337.000 289.000 C 335.464 288.178,335.000 288.240,335.000 289.265 M183.000 292.532 C 183.000 297.692,172.876 319.992,168.899 323.591 C 166.946 325.359,166.923 325.324,167.429 321.444 C 167.712 319.275,168.211 314.513,168.539 310.863 C 169.342 301.916,183.000 284.604,183.000 292.532 M380.758 294.765 C 380.059 299.976,374.535 312.909,370.190 319.507 C 366.710 324.791,364.061 326.887,365.459 323.250 C 365.828 322.288,366.393 317.675,366.713 313.000 C 367.264 304.953,367.509 304.233,371.308 299.500 C 378.882 290.063,381.570 288.716,380.758 294.765 M20.959 293.959 C 22.036 295.036,23.845 297.736,24.979 299.959 C 27.283 304.475,28.427 304.940,30.000 302.000 C 31.413 299.359,32.852 299.464,33.425 302.250 C 37.567 322.365,37.769 322.686,42.301 316.317 C 44.065 313.838,45.064 313.102,45.356 314.067 C 49.414 327.463,54.624 339.613,57.240 341.784 C 60.556 344.536,67.541 333.603,70.899 320.404 L 72.656 313.500 74.292 316.630 C 75.191 318.352,77.091 321.143,78.513 322.833 C 80.490 325.183,81.028 326.799,80.799 329.703 C 80.519 333.262,80.688 333.520,83.500 333.827 C 88.632 334.386,88.497 335.627,82.634 341.774 C 74.764 350.025,75.157 351.005,86.332 350.994 C 94.787 350.987,99.445 349.496,104.071 345.317 L 108.000 341.767 108.000 346.384 C 108.000 351.663,108.427 351.815,118.079 349.985 C 130.098 347.706,136.630 341.899,139.734 330.732 L 141.347 324.933 145.013 328.512 C 148.237 331.661,148.833 331.906,149.962 330.546 C 154.267 325.358,154.027 333.494,149.708 339.172 C 142.016 349.283,116.933 356.905,95.500 355.646 C 56.877 353.376,24.122 329.200,17.055 297.747 C 15.701 291.722,17.234 290.234,20.959 293.959 M219.709 294.250 C 220.840 295.488,222.551 298.075,223.510 300.000 C 225.861 304.718,225.683 304.646,228.500 302.000 C 231.609 299.080,231.399 298.756,233.318 309.411 C 235.361 320.755,236.206 321.623,240.392 316.673 L 243.629 312.846 245.371 319.110 C 247.278 325.969,252.813 338.338,255.391 341.500 C 258.575 345.406,267.699 330.991,269.611 319.032 C 270.367 314.305,271.404 313.952,273.379 317.750 C 274.166 319.262,275.961 321.575,277.367 322.889 C 279.596 324.971,279.847 325.836,279.326 329.639 L 278.728 334.000 282.197 334.000 C 287.575 334.000,287.437 334.875,280.999 341.579 C 272.639 350.286,272.976 351.016,285.332 350.978 C 293.311 350.954,299.569 348.728,304.257 344.247 L 307.015 341.611 306.353 346.439 L 305.692 351.266 312.596 350.539 C 327.715 348.947,339.000 338.810,339.000 326.822 C 339.000 324.034,340.621 324.637,343.589 328.528 C 346.041 331.742,346.431 331.920,347.969 330.528 C 351.757 327.100,353.090 329.461,350.653 335.282 C 348.603 340.179,342.200 345.314,333.765 348.825 C 293.879 365.430,243.347 350.589,223.168 316.344 C 214.555 301.727,212.077 285.904,219.709 294.250 M130.667 295.667 C 129.411 296.922,130.002 297.758,133.032 299.013 C 136.790 300.570,137.909 299.662,135.506 297.006 C 133.657 294.963,131.866 294.468,130.667 295.667 M328.526 295.957 C 327.882 296.999,333.540 300.320,335.083 299.806 C 335.605 299.632,335.324 298.479,334.459 297.245 C 332.851 294.949,329.587 294.241,328.526 295.957 M124.000 301.023 C 122.730 301.863,122.883 302.311,125.000 303.954 C 130.138 307.939,132.738 306.926,129.443 302.223 C 127.749 299.803,126.320 299.488,124.000 301.023 M322.400 301.162 C 321.500 302.618,325.534 306.000,328.170 306.000 C 330.215 306.000,329.986 305.002,327.193 301.750 C 325.461 299.733,323.436 299.485,322.400 301.162 M114.937 307.576 C 114.099 308.586,113.989 309.395,114.630 309.826 C 124.758 316.639,128.558 316.837,122.600 310.243 C 118.455 305.654,116.963 305.135,114.937 307.576 M313.482 307.389 C 311.696 308.696,311.875 308.965,316.487 311.889 C 324.398 316.906,326.296 315.898,320.615 309.695 C 316.855 305.590,316.222 305.386,313.482 307.389 M177.612 325.573 C 170.181 347.565,162.961 364.127,159.582 366.932 C 157.272 368.849,157.468 368.125,163.485 352.496 C 177.229 316.793,186.633 298.872,177.612 325.573 M374.446 330.079 C 366.849 352.331,358.503 369.836,356.464 367.797 C 355.866 367.200,369.423 333.024,374.778 321.627 C 381.170 308.026,381.065 310.695,374.446 330.079 M24.363 324.250 C 27.523 329.955,39.827 360.053,41.431 366.000 L 42.106 368.500 39.898 366.000 C 35.272 360.760,17.947 318.000,20.451 318.000 C 20.699 318.000,22.460 320.813,24.363 324.250 M222.411 323.264 C 225.731 329.235,241.059 367.274,240.408 367.926 C 238.468 369.865,229.560 351.018,221.577 328.084 C 217.697 316.936,217.981 315.296,222.411 323.264 M157.439 344.250 C 152.945 358.784,147.109 371.352,144.632 371.831 C 142.615 372.221,142.790 371.252,147.219 357.500 C 149.206 351.331,151.105 347.478,153.255 345.250 C 156.924 341.450,158.415 341.093,157.439 344.250 M353.079 352.187 C 349.694 362.267,345.247 371.124,343.250 371.765 C 339.468 372.980,347.467 348.785,352.174 344.771 C 356.580 341.014,356.647 341.564,353.079 352.187 M47.085 346.061 C 49.794 347.989,52.137 353.914,56.651 370.250 C 57.364 372.828,54.340 372.455,52.594 369.750 C 51.105 367.443,43.000 346.419,43.000 344.864 C 43.000 343.541,43.928 343.812,47.085 346.061 M245.403 345.940 C 248.880 348.089,257.301 372.000,254.582 372.000 C 252.197 372.000,250.330 368.919,246.034 357.894 C 239.793 341.879,239.825 342.493,245.403 345.940 M136.983 354.750 C 136.829 361.494,131.563 374.000,128.877 374.000 C 125.290 374.000,128.965 357.327,133.000 355.291 C 135.877 353.839,137.007 353.686,136.983 354.750 M335.000 355.606 C 335.000 358.506,331.883 369.453,330.403 371.750 C 326.258 378.185,324.836 371.173,328.000 359.900 C 329.245 355.467,335.000 351.936,335.000 355.606 M67.921 356.750 C 71.078 359.328,74.617 374.000,72.082 374.000 C 68.514 374.000,68.072 373.124,63.368 356.750 C 63.053 355.654,63.410 355.000,64.322 355.000 C 65.123 355.000,66.743 355.788,67.921 356.750 M266.838 356.838 C 269.297 359.297,272.488 371.912,271.022 373.378 C 268.391 376.009,264.417 369.071,262.401 358.326 C 261.672 354.437,263.742 353.742,266.838 356.838 M88.385 361.292 C 89.615 362.192,90.325 364.496,90.722 368.873 L 91.292 375.161 88.404 374.831 C 85.053 374.447,83.561 371.878,82.551 364.750 C 81.817 359.573,84.146 358.193,88.385 361.292 M118.000 360.816 C 118.000 363.982,115.592 373.637,114.653 374.235 C 109.777 377.341,106.484 368.569,110.035 361.934 C 111.074 359.994,118.000 359.022,118.000 360.816 M287.429 361.571 C 290.309 364.452,289.607 375.000,286.535 375.000 C 283.447 375.000,282.226 372.772,281.383 365.605 C 280.667 359.513,283.488 357.631,287.429 361.571 M315.617 365.605 C 314.725 373.190,313.614 375.000,309.848 375.000 L 306.767 375.000 307.487 368.250 C 308.263 360.984,308.940 360.039,313.388 360.015 L 316.275 360.000 315.617 365.605" />
</svg>