<svg xmlns="http://www.w3.org/2000/svg" viewBox="0, 0, 400, 400">
   <path id="M" fill="red" d="M105.012 30.700 C 61.751 51.221,48.382 65.218,46.261 92.206 C 45.973 95.874,45.862 99.372,46.014 99.980 C 46.343 101.291,45.440 101.650,41.766 101.671 C 32.451 101.724,23.986 107.246,19.666 116.089 C 17.229 121.078,17.234 120.903,19.509 121.929 L 21.357 122.763 23.584 120.383 C 33.249 110.049,49.483 118.132,54.500 135.777 C 56.110 141.436,56.120 153.151,54.519 157.111 C 51.751 163.956,46.878 166.926,36.259 168.241 C 24.118 169.744,19.232 172.499,15.935 179.700 C 12.729 186.704,13.542 195.704,17.380 195.704 L 19.449 195.704 19.668 193.437 C 20.406 185.795,24.028 184.603,40.185 186.682 C 58.327 189.016,70.371 183.755,76.827 170.676 C 80.726 162.777,80.808 162.046,81.023 133.294 L 81.212 107.876 96.006 107.876 L 110.799 107.876 110.650 127.088 C 110.478 149.336,110.553 148.936,106.067 151.551 C 102.251 153.777,102.406 156.113,106.525 158.473 C 110.837 160.943,115.634 165.254,121.002 171.486 C 123.628 174.533,126.031 176.986,126.344 176.938 C 126.656 176.889,135.076 170.003,145.053 161.635 L 163.195 146.420 161.712 144.575 C 160.464 143.022,160.110 142.823,159.470 143.315 C 159.053 143.636,157.637 144.770,156.325 145.834 C 155.012 146.898,153.562 148.055,153.103 148.406 C 152.310 149.010,152.267 147.989,152.267 128.494 L 152.267 107.945 158.474 100.273 L 164.681 92.601 158.474 92.601 L 152.267 92.601 152.267 68.075 L 152.267 43.549 155.353 41.538 C 159.091 39.103,157.837 38.652,167.264 45.823 L 175.107 51.790 175.301 104.535 C 175.513 162.176,175.461 161.103,178.306 166.918 C 180.648 171.706,189.162 178.050,191.263 176.573 C 191.794 176.200,197.285 171.926,203.465 167.076 L 214.701 158.257 213.236 156.217 C 211.472 153.760,211.958 153.767,208.791 156.158 C 203.701 160.001,199.236 158.824,197.537 153.193 C 196.397 149.417,196.617 56.048,197.774 52.267 C 198.828 48.822,200.650 45.732,204.195 41.377 L 206.842 38.123 205.136 36.416 L 203.429 34.710 198.731 39.266 L 194.033 43.823 182.200 35.011 L 170.367 26.199 168.596 27.289 C 167.623 27.888,158.996 33.374,149.427 39.480 C 131.162 51.133,131.287 51.077,131.272 47.714 C 131.241 40.465,127.285 34.119,119.674 29.104 C 114.399 25.629,116.088 25.446,105.012 30.700 M101.460 41.320 C 109.934 46.404,110.731 49.301,110.736 75.060 L 110.740 92.601 99.823 92.601 L 88.906 92.601 85.145 97.455 L 81.384 102.310 81.227 100.200 C 80.706 93.177,81.509 60.714,82.272 57.995 C 84.326 50.675,87.998 45.763,94.213 42.021 C 98.901 39.199,98.061 39.280,101.460 41.320 M147.494 69.690 L 147.494 92.601 139.618 92.601 L 131.742 92.601 131.742 74.772 L 131.742 56.943 139.499 51.884 C 143.765 49.101,147.309 46.814,147.375 46.801 C 147.440 46.789,147.494 57.088,147.494 69.690 M78.661 53.103 C 76.267 59.344,76.255 59.581,75.919 110.501 C 75.575 162.765,75.733 160.237,72.576 163.823 C 69.181 167.680,63.672 169.459,55.185 169.440 L 50.358 169.430 54.141 167.412 C 66.398 160.873,66.374 160.983,66.812 109.785 C 67.200 64.467,67.160 64.887,71.598 58.781 C 72.860 57.045,79.081 50.597,79.495 50.597 C 79.565 50.597,79.189 51.724,78.661 53.103 M147.379 130.668 L 147.255 153.461 144.934 155.012 C 140.521 157.961,136.595 156.650,133.898 151.327 C 132.133 147.846,131.742 143.029,131.742 124.786 L 131.742 107.876 139.623 107.876 L 147.503 107.876 147.379 130.668" />
   <path id="A" fill="red" d="M276.691 26.969 C 245.598 32.042,225.790 54.093,227.352 81.897 C 228.140 95.922,234.162 106.665,247.475 117.793 C 249.848 119.777,252.077 121.659,252.428 121.976 C 252.947 122.444,251.447 124.755,244.346 134.426 C 231.312 152.178,228.646 156.564,226.987 162.988 C 224.967 170.814,227.496 177.088,232.671 177.088 C 237.663 177.088,238.671 173.939,235.619 167.872 C 226.599 149.937,245.947 153.109,279.668 175.095 C 281.350 176.191,282.918 177.088,283.154 177.088 C 283.389 177.088,291.961 170.730,302.204 162.959 C 312.446 155.188,320.931 148.934,321.059 149.062 C 321.186 149.190,321.502 151.353,321.759 153.868 C 322.745 163.501,324.602 168.076,329.288 172.414 C 333.276 176.105,336.066 177.495,337.536 176.522 C 338.740 175.724,358.421 159.098,360.323 157.271 L 361.458 156.181 359.896 154.238 L 358.334 152.294 356.136 154.129 C 348.950 160.127,345.772 159.170,343.871 150.436 C 342.409 143.722,340.748 53.943,341.978 48.141 C 343.311 41.850,347.498 36.740,354.204 33.218 C 356.158 32.193,357.816 31.310,357.888 31.257 C 358.021 31.160,356.161 26.646,355.866 26.351 C 354.935 25.420,341.930 33.847,336.791 38.711 L 332.773 42.514 328.320 39.584 C 311.966 28.822,293.296 24.261,276.691 26.969 M287.363 43.933 C 295.509 44.932,307.179 48.859,306.092 50.236 C 305.831 50.566,304.270 52.661,302.622 54.893 C 300.973 57.124,299.387 58.920,299.096 58.884 C 298.806 58.847,296.635 58.242,294.272 57.538 C 282.834 54.132,272.593 56.299,265.111 63.707 C 260.429 68.344,257.104 76.242,258.967 78.301 C 260.244 79.712,260.656 79.513,263.862 75.931 C 269.854 69.240,276.863 68.129,286.005 72.422 L 288.826 73.747 272.567 95.943 C 263.625 108.150,256.097 118.210,255.838 118.298 C 255.579 118.386,254.026 117.387,252.385 116.079 C 219.300 89.697,233.518 48.852,277.566 43.746 C 280.563 43.398,283.455 43.454,287.363 43.933 M314.516 55.021 C 319.901 59.415,319.358 56.438,320.076 85.503 C 320.422 99.504,320.644 111.018,320.571 111.092 C 320.497 111.165,308.625 111.170,294.188 111.102 L 267.938 110.979 289.378 81.742 C 301.171 65.662,310.962 52.510,311.137 52.515 C 311.313 52.521,312.833 53.648,314.516 55.021 M321.241 134.276 L 321.241 142.537 310.436 150.624 C 304.493 155.072,299.260 158.892,298.805 159.114 C 298.072 159.471,249.637 139.123,248.626 138.032 C 248.461 137.854,250.251 135.078,252.604 131.862 L 256.882 126.014 289.061 126.014 L 321.241 126.014 321.241 134.276" />
   <path id="N" fill="red" d="M107.765 219.428 L 73.048 235.979 72.920 246.796 L 72.792 257.613 68.916 255.390 C 57.568 248.885,45.790 249.671,37.335 257.498 L 34.375 260.239 35.663 262.031 L 36.951 263.823 40.074 262.242 C 53.637 255.378,71.300 265.627,72.844 281.258 L 73.162 284.474 69.187 282.085 C 57.791 275.236,46.699 276.293,36.888 285.162 L 34.396 287.414 35.638 289.292 C 37.123 291.535,36.562 291.503,39.839 289.530 C 52.541 281.881,70.653 289.988,74.600 305.090 L 75.266 307.637 72.574 306.343 C 62.508 301.507,53.667 303.064,45.730 311.073 L 42.744 314.086 44.173 315.515 L 45.601 316.943 49.910 314.749 C 66.303 306.402,84.704 323.061,77.381 339.618 C 73.923 347.435,69.307 348.835,55.847 346.149 C 32.617 341.513,22.144 344.486,12.872 358.349 L 10.445 361.978 11.905 363.438 C 13.351 364.884,13.379 364.890,14.678 364.058 C 24.334 357.876,30.749 357.449,45.831 361.985 C 69.929 369.232,80.571 368.116,94.819 356.850 C 107.617 346.730,110.160 339.600,110.667 312.411 L 110.979 295.704 115.513 293.470 C 132.540 285.083,150.469 286.328,167.158 297.055 L 169.877 298.803 168.721 301.419 C 165.854 307.900,159.874 319.131,151.294 334.147 C 143.540 347.718,136.516 362.004,136.516 364.203 C 136.516 364.454,137.423 365.122,138.533 365.688 L 140.551 366.717 141.517 365.380 C 153.165 349.253,164.525 345.948,186.525 352.287 C 189.222 353.064,191.613 353.699,191.840 353.699 C 192.233 353.699,209.069 322.512,209.069 321.783 C 209.069 320.971,204.215 319.645,203.783 320.340 C 203.557 320.704,202.344 322.912,201.089 325.245 C 197.123 332.617,196.779 332.789,188.658 331.457 C 180.282 330.083,170.597 331.034,161.521 334.121 C 159.314 334.871,157.663 335.235,157.853 334.928 C 158.042 334.622,162.925 328.033,168.703 320.288 C 181.432 303.224,184.752 298.310,188.738 290.633 C 203.497 262.201,197.823 234.018,173.713 216.002 C 166.882 210.897,152.012 204.433,144.153 203.150 C 142.680 202.910,138.378 204.834,107.765 219.428 M133.922 223.424 C 148.363 225.432,162.374 233.816,169.623 244.787 C 171.729 247.976,174.897 253.924,174.614 254.160 C 173.399 255.173,163.758 260.568,160.976 261.791 C 146.994 267.938,132.482 267.265,117.422 259.770 L 110.979 256.563 110.853 240.995 L 110.727 225.426 112.762 224.858 C 119.348 223.019,127.192 222.488,133.922 223.424 M105.489 275.072 C 105.489 304.714,105.304 324.477,105.001 326.981 C 103.378 340.444,96.990 348.245,85.676 350.582 C 80.508 351.650,80.138 351.562,82.349 349.797 C 93.993 340.504,94.024 340.314,94.029 278.272 L 94.033 232.677 99.403 229.970 C 102.357 228.481,104.934 227.251,105.131 227.235 C 105.328 227.220,105.489 248.747,105.489 275.072 M176.483 260.979 C 178.184 267.064,176.338 281.294,172.463 291.959 L 171.743 293.942 167.376 291.281 C 149.648 280.481,133.334 279.986,111.337 289.579 C 110.867 289.784,110.740 286.929,110.740 276.185 C 110.740 268.675,110.820 262.530,110.919 262.530 C 111.017 262.530,113.174 263.493,115.711 264.671 C 136.282 274.219,153.415 273.310,172.315 261.668 C 176.087 259.345,176.028 259.354,176.483 260.979" />
   <path id="O" fill="red" d="M237.535 205.554 C 236.393 206.697,236.277 207.152,236.277 210.501 C 236.277 213.850,236.393 214.306,237.535 215.448 L 238.794 216.706 297.375 216.706 L 355.956 216.706 357.214 215.448 C 359.101 213.561,359.101 207.442,357.214 205.554 L 355.956 204.296 297.375 204.296 L 238.794 204.296 237.535 205.554 M302.740 224.616 C 300.208 226.461,286.942 234.943,252.610 256.669 C 249.123 258.875,243.450 262.224,240.003 264.111 L 233.736 267.542 231.654 273.031 C 216.387 313.265,226.543 347.749,258.429 363.951 C 288.162 379.058,319.970 371.274,351.731 341.120 C 374.726 319.288,382.905 304.087,382.204 284.487 C 381.093 253.459,355.822 230.005,316.945 223.919 C 305.647 222.150,306.160 222.125,302.740 224.616 M293.437 242.477 L 297.852 242.482 297.852 298.602 L 297.852 354.723 295.107 354.418 C 286.043 353.410,278.171 351.054,272.179 347.554 C 269.132 345.775,261.098 340.031,261.098 339.632 C 261.098 339.548,264.159 336.509,267.900 332.879 C 286.803 314.537,285.422 319.359,285.434 271.656 L 285.442 241.880 287.232 242.176 C 288.216 242.338,291.008 242.474,293.437 242.477 M312.649 244.700 C 329.510 248.008,343.618 255.388,352.111 265.341 C 355.625 269.459,355.745 268.986,350.119 273.186 C 336.060 283.682,318.403 282.489,304.280 270.089 L 302.625 268.636 302.625 255.792 L 302.625 242.948 304.654 243.239 C 305.770 243.399,309.368 244.056,312.649 244.700 M263.991 321.194 C 263.322 328.723,258.623 337.939,256.703 335.489 C 234.872 307.638,236.178 277.882,260.069 258.741 L 264.200 255.431 264.337 285.591 C 264.417 303.292,264.274 318.000,263.991 321.194 M360.178 279.437 C 362.502 286.793,362.709 295.539,360.790 305.221 C 359.586 311.296,359.772 311.138,356.886 308.542 C 340.749 294.025,321.569 293.964,304.415 308.374 L 302.625 309.878 302.625 292.648 C 302.625 283.171,302.720 275.418,302.835 275.418 C 302.950 275.418,304.618 276.545,306.540 277.924 C 321.539 288.677,338.577 288.205,354.295 276.599 C 358.378 273.585,358.321 273.557,360.178 279.437 M338.186 303.794 C 342.453 304.934,348.207 307.855,352.506 311.064 C 358.024 315.182,357.948 315.039,356.363 318.289 C 349.639 332.075,339.115 342.706,325.776 349.190 C 319.380 352.299,310.025 354.638,303.938 354.651 L 302.625 354.654 302.625 336.315 L 302.625 317.976 305.310 314.831 C 313.827 304.855,326.381 300.640,338.186 303.794" />
</svg>