<svg xmlns="http://www.w3.org/2000/svg" viewBox="0 0 508 508">
   <g transform="translate(0,508) scale(0.1,-0.1)" fill="#ff0000">
      <path d="M2460 4398 c-12 -13 -54 -72 -94 -133 -40 -60 -86 -130 -102 -154
-16 -24 -33 -51 -39 -60 -5 -9 -36 -55 -67 -103 -32 -48 -58 -90 -58 -94 0 -4
-11 -21 -23 -38 -13 -17 -127 -193 -252 -391 -126 -198 -259 -407 -297 -464
-37 -57 -68 -105 -68 -107 0 -2 -33 -55 -73 -117 -130 -199 -496 -778 -528
-835 -11 -18 -28 -45 -37 -60 -69 -103 -82 -123 -82 -128 0 -3 -15 -29 -33
-57 -18 -29 -57 -88 -85 -132 -71 -111 -96 -169 -82 -195 6 -11 19 -24 30 -30
25 -14 3868 -14 3904 0 15 5 31 20 37 34 10 20 7 32 -17 76 -15 28 -37 61 -49
73 -18 18 -196 278 -230 334 -21 36 -161 253 -224 348 -36 55 -69 108 -74 119
-4 10 -38 60 -75 110 -37 50 -83 116 -102 146 -18 30 -75 118 -125 195 -50 77
-131 203 -179 280 -49 77 -110 174 -136 215 -27 41 -73 113 -102 159 -29 45
-60 93 -68 106 -19 29 -159 246 -182 283 -10 15 -21 34 -25 42 -4 8 -11 20
-16 25 -4 6 -37 55 -72 110 -35 55 -93 145 -128 200 -36 55 -82 127 -102 159
-67 105 -105 127 -145 84z m91 -324 c66 -105 141 -221 189 -294 20 -30 61 -95
91 -144 30 -48 61 -99 69 -112 8 -13 33 -51 55 -86 21 -35 77 -121 123 -193
99 -152 132 -203 197 -305 26 -41 65 -101 86 -134 48 -71 49 -85 7 -53 -130
97 -344 137 -736 137 -228 0 -362 -8 -542 -31 -199 -25 -384 -66 -428 -95 -13
-9 -26 -13 -29 -11 -2 3 40 77 95 164 54 87 125 201 156 253 148 244 219 360
336 550 69 113 143 234 164 270 37 62 107 170 111 170 1 0 26 -39 56 -86z
m-1005 -1529 c-13 -55 -36 -147 -51 -205 -27 -108 -42 -200 -32 -200 3 0 13
26 22 58 51 184 141 323 245 378 50 27 189 25 295 -5 185 -51 340 -148 506
-314 144 -145 199 -242 239 -425 l19 -87 -22 -18 c-12 -9 -96 -54 -187 -100
l-165 -82 -754 -3 c-415 -1 -758 1 -763 6 -4 4 13 42 39 83 83 132 98 156 127
205 85 141 305 498 341 554 12 19 53 86 90 148 37 62 69 111 71 110 2 -2 -8
-49 -20 -103z m1990 -17 c29 -46 77 -121 107 -168 30 -47 83 -130 119 -185 35
-55 113 -176 172 -270 60 -93 135 -210 167 -260 l59 -90 -647 -3 c-355 -1
-648 0 -650 2 -3 2 -9 37 -15 78 -5 40 -10 77 -11 82 -1 5 47 39 106 76 215
134 407 296 469 395 62 100 105 289 80 356 -14 38 -24 85 -17 77 4 -4 31 -44
61 -90z"/>
   </g>
</svg>
